<?xml version="1.0" encoding="UTF-8" standalone="no"?>
<!DOCTYPE svg PUBLIC "-//W3C//DTD SVG 1.1//EN" "http://www.w3.org/Graphics/SVG/1.1/DTD/svg11.dtd">
<svg version="1.1" xmlns="http://www.w3.org/2000/svg" xmlns:xlink="http://www.w3.org/1999/xlink" preserveAspectRatio="xMidYMid meet" viewBox="0 0 640 640" width="640" height="640"><defs><path d="M525.13 377.45C527.22 376.5 527.26 373.55 525.19 372.54C487.15 353.94 386.47 304.71 350.5 287.12C340.68 282.32 329.23 282.16 319.29 286.69C281.48 303.9 175.73 352.04 135.91 370.17C133.71 371.17 133.71 374.31 135.92 375.3C175.56 393.17 283.55 441.84 321.88 459.11C329.66 462.62 338.58 462.6 346.35 459.05C383.15 442.25 486.93 394.89 525.13 377.45Z" id="c1iVgEF5eN"></path><path d="M333.06 464.57C332.53 478.7 332.19 487.53 332.06 491.06C331.93 494.27 335.23 496.5 338.17 495.18C356.45 486.99 402.17 466.51 475.33 433.74C498.78 423.35 513.44 416.86 519.3 414.26C524.13 412.12 527.26 407.33 527.28 402.05C527.29 399.12 527.32 391.81 527.37 380.1L527.36 378.65" id="h1xTRcoDrJ"></path><path d="M332.05 495.58C231.07 451.54 167.96 424.01 142.71 413C137.36 410.67 133.91 405.38 133.94 399.54C133.95 396.08 133.99 387.42 134.04 373.57" id="b4YDV4pqmG"></path><path d="M298.28 204.87C302.6 205.48 304.3 210.82 301.13 213.82C295.61 219.02 285.32 228.73 279.4 234.31C275.75 237.76 274.07 242.81 274.95 247.76C276.34 255.62 278.75 269.19 280.05 276.52C280.82 280.86 276.3 284.21 272.37 282.22C267.8 279.89 256.37 274.07 238.08 264.77C219.12 274.41 207.27 280.44 202.54 282.85C199.12 284.59 195.2 281.68 195.86 277.91C197.21 270.29 199.81 255.62 201.21 247.76C202.08 242.81 200.41 237.76 196.76 234.31C190.84 228.73 180.81 219.27 175.36 214.13C172.05 211.01 173.82 205.44 178.33 204.81C185.9 203.74 199.58 201.82 207.69 200.68C213 199.93 217.61 196.64 220.05 191.86C223.65 184.79 230.34 171.68 233.88 164.73C235.63 161.3 240.52 161.3 242.27 164.73C245.82 171.68 252.5 184.79 256.11 191.86C258.55 196.64 263.16 199.93 268.47 200.68C276.58 201.82 290.62 203.79 298.28 204.87Z" id="iGvrds11d"></path><path d="M484.32 164.68C489.73 165.44 491.85 172.12 487.88 175.87C480.99 182.37 468.13 194.5 460.72 201.48C456.16 205.79 454.07 212.1 455.16 218.28C456.91 228.11 459.91 245.07 461.54 254.24C462.5 259.66 456.85 263.85 451.94 261.35C446.22 258.44 431.94 251.17 409.08 239.54C385.39 251.6 370.59 259.13 364.66 262.15C360.4 264.32 355.49 260.68 356.32 255.97C358.01 246.45 361.26 228.11 363 218.28C364.1 212.1 362.01 205.79 357.44 201.48C350.04 194.5 337.52 182.69 330.71 176.26C326.56 172.36 328.78 165.4 334.42 164.6C343.87 163.27 360.97 160.87 371.1 159.44C377.74 158.51 383.5 154.4 386.55 148.42C391.06 139.59 399.41 123.21 403.84 114.52C406.02 110.24 412.14 110.24 414.32 114.52C418.76 123.21 427.11 139.59 431.62 148.42C434.66 154.4 440.43 158.51 447.07 159.44C457.2 160.87 474.75 163.34 484.32 164.68Z" id="b1hkWTx6ix"></path><path d="M325.15 83.9C328.44 84.36 329.74 88.42 327.32 90.7C323.13 94.66 315.3 102.04 310.8 106.29C308.02 108.91 306.75 112.75 307.42 116.51C308.48 122.49 310.3 132.8 311.29 138.38C311.88 141.68 308.44 144.23 305.45 142.71C301.98 140.94 293.29 136.52 279.38 129.44C264.97 136.78 255.96 141.36 252.36 143.19C249.76 144.51 246.77 142.3 247.28 139.43C248.31 133.64 250.29 122.49 251.35 116.51C252.01 112.75 250.74 108.91 247.96 106.29C243.46 102.04 235.84 94.85 231.7 90.94C229.18 88.57 230.52 84.33 233.95 83.85C239.71 83.04 250.11 81.58 256.27 80.71C260.31 80.14 263.82 77.64 265.67 74C268.41 68.63 273.5 58.66 276.19 53.38C277.52 50.77 281.24 50.77 282.57 53.38C285.26 58.66 290.35 68.63 293.09 74.01C294.94 77.64 298.45 80.14 302.49 80.71C308.66 81.58 319.33 83.08 325.15 83.9Z" id="bp4lRrRFz"></path><path d="M328.79 464.4L328.79 490.92C228.73 447.79 166.19 420.83 141.18 410.05C138.3 408.81 136.43 405.97 136.43 402.83C136.43 398.17 136.43 385.56 136.43 379.96C136.43 379.77 136.62 379.65 136.78 379.72C162.38 391.01 226.39 419.24 328.79 464.4Z" id="d6Wdt3EkP"></path><path d="M330.73 518.6L462.39 461.73L462.39 510.6C419.21 537.06 375.68 550.29 331.79 550.29C287.91 550.29 243.66 537.06 199.07 510.6L199.07 461.73L330.73 518.6Z" id="aRtedc1zf"></path><path d="M331.88 495.58L331.75 461.73" id="a3dNZpSvsy"></path><path d="M176.24 409.01L175.62 562.81L164.3 550.2L152.9 559.13L153.55 396.35L176.24 409.01Z" id="aE71G69t"></path><path d="M527.37 404.93L527.37 375.07" id="hcERlbbON"></path></defs><g><g><g><use xlink:href="#c1iVgEF5eN" opacity="1" fill="#3d7650" fill-opacity="1"></use><g><use xlink:href="#c1iVgEF5eN" opacity="1" fill-opacity="0" stroke="#3d7650" stroke-width="6" stroke-opacity="1"></use></g></g><g><use xlink:href="#h1xTRcoDrJ" opacity="1" fill="#418a5a" fill-opacity="1"></use><g><use xlink:href="#h1xTRcoDrJ" opacity="1" fill-opacity="0" stroke="#3d7650" stroke-width="6" stroke-opacity="1"></use></g></g><g><g><use xlink:href="#b4YDV4pqmG" opacity="1" fill-opacity="0" stroke="#3d7650" stroke-width="6" stroke-opacity="1"></use></g></g><g><use xlink:href="#iGvrds11d" opacity="1" fill="#ffffc3" fill-opacity="1"></use><g><use xlink:href="#iGvrds11d" opacity="1" fill-opacity="0" stroke="#ffffc3" stroke-width="6" stroke-opacity="1"></use></g></g><g><use xlink:href="#b1hkWTx6ix" opacity="1" fill="#ffffc3" fill-opacity="1"></use><g><use xlink:href="#b1hkWTx6ix" opacity="1" fill-opacity="0" stroke="#ffffc3" stroke-width="6" stroke-opacity="1"></use></g></g><g><use xlink:href="#bp4lRrRFz" opacity="1" fill="#ffffc3" fill-opacity="1"></use><g><use xlink:href="#bp4lRrRFz" opacity="1" fill-opacity="0" stroke="#ffffc3" stroke-width="6" stroke-opacity="1"></use></g></g><g><use xlink:href="#d6Wdt3EkP" opacity="1" fill="#ffffff" fill-opacity="1"></use></g><g><use xlink:href="#aRtedc1zf" opacity="1" fill="#519c6a" fill-opacity="1"></use><g><use xlink:href="#aRtedc1zf" opacity="1" fill-opacity="0" stroke="#3d7650" stroke-width="6" stroke-opacity="1"></use></g></g><g><g><use xlink:href="#a3dNZpSvsy" opacity="1" fill-opacity="0" stroke="#3d7650" stroke-width="6" stroke-opacity="1"></use></g></g><g><use xlink:href="#aE71G69t" opacity="1" fill="#ffffc3" fill-opacity="1"></use><g><use xlink:href="#aE71G69t" opacity="1" fill-opacity="0" stroke="#ffffc3" stroke-width="6" stroke-opacity="1"></use></g></g><g><g><use xlink:href="#hcERlbbON" opacity="1" fill-opacity="0" stroke="#3d7650" stroke-width="6" stroke-opacity="1"></use></g></g></g></g></svg>